#!OML:ASF F:\VICON\USERDATA\INSTALL\rory3\rory3.ASF
:FULLY-SPECIFIED
:DEGREES
848
root -2.01402 17.9134 -4.94229 -1.19483 6.77519 3.62959
lowerback 12.9872 5.32654 4.13268
upperback 4.06451 7.5582 -0.391488
thorax -2.36345 3.78117 -3.78952
lowerneck -10.9128 0.139866 -5.86131
upperneck 17.928 0.879171 2.40366
head 7.26109 0.264753 1.84085
rclavicle 2.96189e-014 -2.94201e-014
rhumerus 37.2859 -25.9953 -72.1254
rradius 139.19
rwrist -37.6549
rhand -21.2019 7.94234
rfingers 7.12502
rthumb 5.17936 -21.9744
lclavicle 2.96189e-014 -2.94201e-014
lhumerus -29.0402 6.4086 49.4411
lradius 80.4057
lwrist 8.24201
lhand -34.0279 11.7121
lfingers 7.12502
lthumb -7.20648 41.5694
rfemur -17.3873 3.56161 15.0097
rtibia 47.0415
rfoot -26.9134 -23.2751
rtoes -0.607395
lfemur -32.5142 -3.90928 -1.63212
ltibia 54.4866
lfoot 16.1153 2.14279
ltoes -10.067
849
root -2.10194 17.9223 -4.97397 -1.22092 7.01869 3.83079
lowerback 13.2434 5.53643 4.05573
upperback 4.33636 7.83373 -0.262294
thorax -2.21994 3.92639 -3.65845
lowerneck -10.8051 0.0299627 -5.97468
upperneck 18.2386 0.766718 2.30908
head 7.34937 0.191735 1.82157
rclavicle 9.8796e-014 -1.11319e-014
rhumerus 38.1807 -26.2744 -72.7217
rradius 139.554
rwrist -38.1438
rhand -20.5746 7.35219
rfingers 7.12502
rthumb 5.78509 -22.5488
lclavicle 9.8796e-014 -1.11319e-014
lhumerus -29.3402 6.78313 48.9363
lradius 80.3531
lwrist 8.21605
lhand -34.0059 11.6679
lfingers 7.12502
lthumb -7.18523 41.5259
rfemur -17.443 3.18926 15.0584
rtibia 47.1076
rfoot -26.9915 -23.1015
rtoes -0.511703
lfemur -34.3466 -3.83721 -1.73356
ltibia 56.341
lfoot 18.2515 2.31466
ltoes -7.00159
850
root -2.18445 17.9255 -5.01208 -1.21571 7.12283 3.94824
lowerback 13.5029 5.75919 4.1117
upperback 4.60852 8.14278 -0.124019
thorax -2.05848 4.08915 -3.59509
lowerneck -10.6729 -0.0572031 -6.18988
upperneck 18.5089 0.670191 2.38098
head 7.41801 0.134802 1.87455
rclavicle 1.70955e-014 9.54166e-015
rhumerus 39.1533 -26.4533 -73.3281
rradius 139.888
rwrist -38.6316
rhand -20.2184 6.97403
rfingers 7.12502
rthumb 6.12898 -22.9173
lclavicle 1.70955e-014 9.54166e-015
lhumerus -29.7874 7.10613 48.3691
lradius 80.4256
lwrist 8.22671
lhand -33.8362 11.6303
lfingers 7.12502
lthumb -7.02144 41.4939
rfemur -17.6194 2.88926 15.1708
rtibia 47.1898
rfoot -27.0185 -22.8831
rtoes -0.133438
lfemur -36.2172 -3.71585 -1.74284
ltibia 58.1976
lfoot 19.5114 2.21466
ltoes -4.75667
851
root -2.26535 17.9241 -5.05268 -1.24463 7.16866 3.99404
lowerback 14.0736 5.92552 4.38677
upperback 4.7367 8.41801 -0.108733
thorax -2.16632 4.22617 -3.82185
lowerneck -10.6631 -0.116134 -6.32544
upperneck 18.9735 0.580731 2.58358
head 7.57117 0.0962855 1.96126
rclavicle 8.62725e-014 4.77083e-015
rhumerus 39.9251 -26.5623 -74.0956
rradius 140.194
rwrist -39.1491
rhand -20.1054 7.07123
rfingers 7.12502
rthumb 6.23809 -22.8169
lclavicle 8.62725e-014 4.77083e-015
lhumerus -30.393 7.31936 47.5146
lradius 80.4749
lwrist 8.22399
lhand -33.8403 11.5973
lfingers 7.12502
lthumb -7.02537 41.4607
rfemur -17.8363 2.70184 15.3809
rtibia 47.2943
rfoot -26.8956 -22.8604
rtoes -0.124193
lfemur -38.0549 -3.51889 -1.67835
ltibia 60.0716
lfoot 19.9117 1.28601
ltoes -3.76231
852
root -2.34324 17.9255 -5.09038 -1.29629 7.11827 4.02647
lowerback 14.5087 6.11193 4.64934
upperback 4.96371 8.71272 -0.0703595
thorax -2.09703 4.38092 -3.99772
lowerneck -10.6651 -0.171157 -6.39132
upperneck 19.3577 0.512071 2.64083
head 7.7011 0.0604234 1.98978
rclavicle 6.61953e-014 -2.38542e-015
rhumerus 40.8699 -26.6919 -74.9669
rradius 140.457
rwrist -39.6615
rhand -20.1017 6.84652
rfingers 7.12502
rthumb 6.2416 -23.0415
lclavicle 6.61953e-014 -2.38542e-015
lhumerus -30.9721 7.61327 46.6866
lradius 80.3911
lwrist 8.02267
lhand -33.8921 11.4777
lfingers 7.12502
lthumb -7.07537 41.3395
rfemur -18.0492 2.58306 15.6019
rtibia 47.4034
rfoot -26.6999 -22.8592
rtoes -0.528278
lfemur -39.8078 -3.22964 -1.63571
ltibia 61.9778
lfoot 19.675 -0.318867
ltoes -3.99694
853
root -2.41331 17.9298 -5.12696 -1.25788 7.02004 4.29401
lowerback 14.827 6.36 4.70127
upperback 5.21984 9.05307 -0.0678961
thorax -1.95391 4.56113 -4.08704
lowerneck -10.5805 -0.248025 -6.38842
upperneck 19.6357 0.421538 2.56391
head 7.78308 0.00796527 1.95852
rclavicle 9.8796e-014 -1.11319e-014
rhumerus 41.7929 -26.8682 -75.7803
rradius 140.677
rwrist -39.9607
rhand -19.9286 6.74107
rfingers 7.12502
rthumb 6.40874 -23.142
lclavicle 9.8796e-014 -1.11319e-014
lhumerus -31.4996 7.90602 45.9445
lradius 80.2232
lwrist 7.77281
lhand -33.6678 11.0248
lfingers 7.12502
lthumb -6.85891 40.8937
rfemur -18.3262 2.42046 15.5092
rtibia 47.5289
rfoot -26.5654 -22.7261
rtoes -0.64613
lfemur -41.5761 -2.97803 -1.92757
ltibia 63.9016
lfoot 18.9955 -1.751
ltoes -4.66612
854
root -2.47924 17.936 -5.16103 -1.24629 6.91421 4.67409
lowerback 15.2518 6.55992 4.65833
upperback 5.48637 9.31945 -0.0965087
thorax -1.87167 4.70224 -4.1624
lowerneck -10.5911 -0.295049 -6.35794
upperneck 19.8613 0.396709 2.37062
head 7.86285 -0.0216259 1.88997
rclavicle 1.23246e-014 -3.18055e-015
rhumerus 42.707 -26.8182 -76.5869
rradius 140.991
rwrist -39.9736
rhand -19.773 6.78041
rfingers 7.12502
rthumb 6.55896 -23.098
lclavicle 1.23246e-014 -3.18055e-015
lhumerus -32.197 8.29356 45.1007
lradius 80.0729
lwrist 7.5849
lhand -33.2971 10.6125
lfingers 7.12502
lthumb -6.50103 40.4927
rfemur -18.5409 2.26311 15.2671
rtibia 47.6722
rfoot -26.6044 -22.5209
rtoes -0.229676
lfemur -43.2767 -2.72607 -2.40759
ltibia 65.8333
lfoot 18.0747 -2.52183
ltoes -4.64647
855
root -2.54641 17.9401 -5.19708 -1.25903 6.80644 5.00137
lowerback 15.7573 6.72901 4.57921
upperback 5.71932 9.545 -0.0620928
thorax -1.88751 4.81703 -4.16428
lowerneck -10.6474 -0.298562 -6.39207
upperneck 20.194 0.454304 2.15589
head 7.98325 -0.0205092 1.83436
rclavicle -1.46703e-013 3.49861e-014
rhumerus 43.632 -26.6324 -77.3495
rradius 141.423
rwrist -39.9515
rhand -19.9683 6.25498
rfingers 7.12502
rthumb 6.37042 -23.6292
lclavicle -1.46703e-013 3.49861e-014
lhumerus -33.1208 8.72647 44.3429
lradius 79.9798
lwrist 7.28056
lhand -33.1472 10.7287
lfingers 7.12502
lthumb -6.3563 40.6133
rfemur -18.7638 2.11499 15.1067
rtibia 47.8441
rfoot -26.4884 -22.4846
rtoes -0.247037
lfemur -44.9955 -2.43173 -2.86149
ltibia 67.7438
lfoot 17.1843 -3.00368
ltoes -4.11987
856
root -2.61236 17.9446 -5.23672 -1.20445 6.69148 5.39489
lowerback 16.1898 6.93479 4.42602
upperback 5.94289 9.80345 -0.0300876
thorax -1.88307 4.94775 -4.12667
lowerneck -10.6811 -0.321798 -6.44743
upperneck 20.5247 0.485273 1.96013
head 8.10068 -0.0321706 1.7857
rclavicle 1.20861e-013 -3.49861e-014
rhumerus 44.5551 -26.5962 -78.1927
rradius 141.796
rwrist -39.8462
rhand -20.3946 6.44221
rfingers 7.12502
rthumb 5.95887 -23.454
lclavicle 1.20861e-013 -3.49861e-014
lhumerus -33.8838 9.22203 43.6958
lradius 79.6023
lwrist 6.78583
lhand -33.1724 10.9932
lfingers 7.12502
lthumb -6.38069 40.8771
rfemur -19.0832 1.96407 14.8729
rtibia 48.0309
rfoot -26.2198 -22.5073
rtoes -0.981221
lfemur -46.8074 -2.13836 -3.43798
ltibia 69.6049
lfoot 16.4119 -3.51147
ltoes -4.45343
857
root -2.67393 17.9579 -5.27262 -1.12396 6.4844 5.96435
lowerback 16.5433 7.19468 4.11528
upperback 6.22298 10.1011 -0.045789
thorax -1.79221 5.10091 -4.04597
lowerneck -10.8246 -0.363214 -6.44896
upperneck 20.8339 0.487979 1.76847
head 8.23264 -0.0530287 1.72652
rclavicle 1.17283e-013 -7.15625e-014
rhumerus 45.4492 -26.5956 -79.0647
rradius 142.174
rwrist -39.5169
rhand -20.9126 7.22263
rfingers 7.12502
rthumb 5.45878 -22.6871
lclavicle 1.17283e-013 -7.15625e-014
lhumerus -34.5673 9.85337 43.0338
lradius 79.0495
lwrist 6.27036
lhand -33.0827 10.7901
lfingers 7.12502
lthumb -6.29405 40.6766
rfemur -19.3955 1.88774 14.3917
rtibia 48.208
rfoot -26.2271 -22.0742
rtoes -0.18061
lfemur -48.5355 -1.82072 -4.26024
ltibia 71.4119
lfoot 15.6713 -3.70582
ltoes -4.8097
858
root -2.7308 17.9772 -5.30678 -1.05387 6.30142 6.56872
lowerback 17.006 7.44545 3.8969
upperback 6.45966 10.4007 -0.15323
thorax -1.77049 5.25434 -4.13072
lowerneck -10.8849 -0.407334 -6.29083
upperneck 21.0725 0.456767 1.54357
head 8.3273 -0.0798959 1.62464
rclavicle -1.48691e-013 -1.59028e-015
rhumerus 46.1986 -26.7072 -79.9333
rradius 142.676
rwrist -39.226
rhand -21.0212 6.82033
rfingers 7.12502
rthumb 5.35392 -23.092
lclavicle -1.48691e-013 -1.59028e-015
lhumerus -35.3407 10.2267 42.3096
lradius 78.6961
lwrist 5.99763
lhand -33.1404 11.0433
lfingers 7.12502
lthumb -6.34978 40.9281
rfemur -19.6215 1.82295 13.8158
rtibia 48.353
rfoot -26.8033 -21.0913
rtoes 3.32127
lfemur -50.2522 -1.54414 -5.16546
ltibia 73.1961
lfoot 14.949 -3.71036
ltoes -4.70312
859
root -2.7844 17.994 -5.34058 -0.961953 6.18752 7.14966
lowerback 17.4959 7.64758 3.74648
upperback 6.67325 10.6459 -0.273191
thorax -1.77613 5.38057 -4.26481
lowerneck -10.8972 -0.447012 -6.24136
upperneck 21.2574 0.430501 1.40495
head 8.39449 -0.103575 1.56933
rclavicle 1.35174e-013 -3.18055e-015
rhumerus 46.8932 -26.8081 -80.8325
rradius 143.129
rwrist -38.9895
rhand -20.8673 6.83051
rfingers 7.12502
rthumb 5.50246 -23.078
lclavicle 1.35174e-013 -3.18055e-015
lhumerus -36.1397 10.5537 41.5813
lradius 78.324
lwrist 5.90295
lhand -33.2488 11.7638
lfingers 7.12502
lthumb -6.45442 41.6454
rfemur -19.8442 1.65382 13.2806
rtibia 48.4061
rfoot -27.194 -20.4235
rtoes 6.02529
lfemur -52.062 -1.33082 -6.07964
ltibia 74.9865
lfoot 14.3594 -3.69748
ltoes -4.51719
860
root -2.83514 18.002 -5.37611 -0.881648 5.98574 7.64416
lowerback 17.9517 7.85998 3.5613
upperback 6.91292 10.8976 -0.305091
thorax -1.75843 5.50863 -4.28598
lowerneck -10.8909 -0.468936 -6.28664
upperneck 21.3703 0.447379 1.25623
head 8.43267 -0.114444 1.52993
rclavicle -7.43455e-014 -1.43125e-014
rhumerus 47.6127 -26.7463 -81.6634
rradius 143.454
rwrist -38.734
rhand -21.1142 8.27364
rfingers 7.12502
rthumb 5.2641 -21.641
lclavicle -7.43455e-014 -1.43125e-014
lhumerus -36.9573 11.1266 40.9021
lradius 77.7403
lwrist 5.7777
lhand -33.1723 11.4467
lfingers 7.12502
lthumb -6.38054 41.3306
rfemur -20.1226 1.51129 12.892
rtibia 48.4568
rfoot -26.7874 -20.482
rtoes 4.75256
lfemur -53.9125 -1.08041 -6.87377
ltibia 76.8297
lfoot 13.899 -3.4798
ltoes -4.06376
